<mxfile host="app.diagrams.net" modified="2021-05-13T02:55:00.631Z" agent="5.0 (Windows)" etag="w4uX2pdkZZHgGWKvQMBm" version="14.6.12" type="github">
  <diagram id="C5RBs43oDa-KdzZeNtuy" name="Page-1">
    <mxGraphModel dx="1422" dy="763" grid="1" gridSize="10" guides="1" tooltips="1" connect="1" arrows="1" fold="1" page="1" pageScale="1" pageWidth="827" pageHeight="1169" math="0" shadow="0">
      <root>
        <mxCell id="WIyWlLk6GJQsqaUBKTNV-0" />
        <mxCell id="WIyWlLk6GJQsqaUBKTNV-1" parent="WIyWlLk6GJQsqaUBKTNV-0" />
        <mxCell id="cEIBkgwO9S1BXHAtEz54-1" style="edgeStyle=orthogonalEdgeStyle;rounded=0;orthogonalLoop=1;jettySize=auto;html=1;" edge="1" parent="WIyWlLk6GJQsqaUBKTNV-1" source="WIyWlLk6GJQsqaUBKTNV-3" target="cEIBkgwO9S1BXHAtEz54-0">
          <mxGeometry relative="1" as="geometry" />
        </mxCell>
        <mxCell id="WIyWlLk6GJQsqaUBKTNV-3" value="get接口" style="rounded=1;whiteSpace=wrap;html=1;fontSize=12;glass=0;strokeWidth=1;shadow=0;" parent="WIyWlLk6GJQsqaUBKTNV-1" vertex="1">
          <mxGeometry x="160" y="80" width="120" height="40" as="geometry" />
        </mxCell>
        <mxCell id="cEIBkgwO9S1BXHAtEz54-4" value="有数据" style="edgeStyle=orthogonalEdgeStyle;rounded=0;orthogonalLoop=1;jettySize=auto;html=1;entryX=0.5;entryY=0;entryDx=0;entryDy=0;" edge="1" parent="WIyWlLk6GJQsqaUBKTNV-1" source="cEIBkgwO9S1BXHAtEz54-0" target="cEIBkgwO9S1BXHAtEz54-3">
          <mxGeometry relative="1" as="geometry" />
        </mxCell>
        <mxCell id="cEIBkgwO9S1BXHAtEz54-6" value="没有数据" style="edgeStyle=orthogonalEdgeStyle;rounded=0;orthogonalLoop=1;jettySize=auto;html=1;exitX=1;exitY=0.5;exitDx=0;exitDy=0;entryX=0.558;entryY=-0.067;entryDx=0;entryDy=0;entryPerimeter=0;" edge="1" parent="WIyWlLk6GJQsqaUBKTNV-1" source="cEIBkgwO9S1BXHAtEz54-0" target="cEIBkgwO9S1BXHAtEz54-2">
          <mxGeometry relative="1" as="geometry" />
        </mxCell>
        <mxCell id="cEIBkgwO9S1BXHAtEz54-0" value="&lt;span&gt;直接从&lt;span lang=&quot;EN-US&quot;&gt;redis&lt;/span&gt;缓存中取数据&lt;/span&gt;" style="rounded=1;whiteSpace=wrap;html=1;" vertex="1" parent="WIyWlLk6GJQsqaUBKTNV-1">
          <mxGeometry x="160" y="200" width="120" height="60" as="geometry" />
        </mxCell>
        <mxCell id="cEIBkgwO9S1BXHAtEz54-9" style="edgeStyle=orthogonalEdgeStyle;rounded=0;orthogonalLoop=1;jettySize=auto;html=1;" edge="1" parent="WIyWlLk6GJQsqaUBKTNV-1" source="cEIBkgwO9S1BXHAtEz54-2" target="cEIBkgwO9S1BXHAtEz54-7">
          <mxGeometry relative="1" as="geometry" />
        </mxCell>
        <mxCell id="cEIBkgwO9S1BXHAtEz54-2" value="添加redis分布式锁" style="rounded=1;whiteSpace=wrap;html=1;" vertex="1" parent="WIyWlLk6GJQsqaUBKTNV-1">
          <mxGeometry x="470" y="360" width="120" height="60" as="geometry" />
        </mxCell>
        <mxCell id="cEIBkgwO9S1BXHAtEz54-3" value="直接返回该数据" style="rounded=1;whiteSpace=wrap;html=1;" vertex="1" parent="WIyWlLk6GJQsqaUBKTNV-1">
          <mxGeometry x="160" y="360" width="120" height="60" as="geometry" />
        </mxCell>
        <mxCell id="cEIBkgwO9S1BXHAtEz54-10" style="edgeStyle=orthogonalEdgeStyle;rounded=0;orthogonalLoop=1;jettySize=auto;html=1;entryX=0.5;entryY=0;entryDx=0;entryDy=0;" edge="1" parent="WIyWlLk6GJQsqaUBKTNV-1" source="cEIBkgwO9S1BXHAtEz54-7" target="cEIBkgwO9S1BXHAtEz54-8">
          <mxGeometry relative="1" as="geometry" />
        </mxCell>
        <mxCell id="cEIBkgwO9S1BXHAtEz54-7" value="&lt;span&gt;获得此锁的线程会去数据库中取数据，并将数据缓存到&lt;span lang=&quot;EN-US&quot;&gt;redis&lt;/span&gt;中&lt;/span&gt;" style="rounded=1;whiteSpace=wrap;html=1;" vertex="1" parent="WIyWlLk6GJQsqaUBKTNV-1">
          <mxGeometry x="470" y="480" width="120" height="60" as="geometry" />
        </mxCell>
        <mxCell id="cEIBkgwO9S1BXHAtEz54-12" style="edgeStyle=orthogonalEdgeStyle;rounded=0;orthogonalLoop=1;jettySize=auto;html=1;entryX=0.5;entryY=0;entryDx=0;entryDy=0;" edge="1" parent="WIyWlLk6GJQsqaUBKTNV-1" source="cEIBkgwO9S1BXHAtEz54-8" target="cEIBkgwO9S1BXHAtEz54-11">
          <mxGeometry relative="1" as="geometry" />
        </mxCell>
        <mxCell id="cEIBkgwO9S1BXHAtEz54-8" value="释放redis分布式锁" style="rounded=1;whiteSpace=wrap;html=1;" vertex="1" parent="WIyWlLk6GJQsqaUBKTNV-1">
          <mxGeometry x="470" y="600" width="120" height="60" as="geometry" />
        </mxCell>
        <mxCell id="cEIBkgwO9S1BXHAtEz54-11" value="返回该数据" style="rounded=1;whiteSpace=wrap;html=1;" vertex="1" parent="WIyWlLk6GJQsqaUBKTNV-1">
          <mxGeometry x="470" y="730" width="120" height="60" as="geometry" />
        </mxCell>
      </root>
    </mxGraphModel>
  </diagram>
</mxfile>
